<?xml version="1.0" encoding="UTF-8"?>
<svg width="40px" height="40px" viewBox="0 0 40 40" version="1.1" xmlns="http://www.w3.org/2000/svg" xmlns:xlink="http://www.w3.org/1999/xlink">
    <!-- Generator: sketchtool 62 (101010) - https://sketch.com -->
    <title>828BE862-20B9-4572-BFBD-01C46251E801</title>
    <desc>Created with sketchtool.</desc>
    <g id="Symbols" stroke="none" stroke-width="1" fill="none" fill-rule="evenodd">
        <g id="logo_vw" fill="#29B6FF" fill-rule="nonzero">
            <path d="M19.9999809,0 C8.94116793,0 0,8.96255827 0,19.9999809 C0,31.0587939 8.96255831,39.9999617 19.9999809,39.9999617 C31.0587939,39.9999617 40,31.0374035 40,19.9999809 C40.0213521,8.94116796 31.0587939,0 19.9999809,0 L19.9999809,0 L19.9999809,0 L19.9999809,0 Z M19.9999809,1.77539937 C30.0534472,1.77539937 38.2245624,9.92512421 38.2245624,19.9999809 C38.2245624,30.0534472 30.0748376,38.2245624 19.9999809,38.2245624 C9.94651456,38.2245624 1.77539937,30.0748376 1.77539937,19.9999809 C1.77539937,9.94651459 9.92512419,1.77539937 19.9999809,1.77539937 Z M19.9999809,24.9411526 L16.0855461,33.6256363 C17.3261866,33.9892723 18.6523886,34.1817855 19.9999809,34.1817855 C21.2168544,34.1817855 22.3830248,34.0296763 23.4984921,33.7404811 L23.9144157,33.6256363 L19.9999809,24.9411526 Z M6.3101544,16.3422303 C5.98929909,17.5186999 5.83956661,18.73795 5.83956661,20.0213712 C5.83956661,25.4669988 8.89531418,30.1948334 13.4003202,32.5582234 L13.6898265,32.7058511 L6.3101544,16.3422303 Z M33.7111977,16.3636207 L26.3315256,32.6844607 C30.9946228,30.3529121 34.1817855,25.5400826 34.1817855,19.9999809 C34.1817855,18.8957039 34.0507696,17.8241809 33.8173975,16.7997416 L33.7111977,16.3636207 Z M27.6149469,8.04277308 L22.3957005,19.6149545 L17.6042612,19.6149545 L12.3850149,8.04277308 L12.0151524,8.288725 C10.6754206,9.20988422 9.51692497,10.3422361 8.55614153,11.6363525 L8.55614153,11.6363525 L15.1015899,26.1176221 L17.6256516,20.491959 L22.3957005,20.491959 L24.9197623,26.1176221 L31.4652106,11.6363525 L31.1978683,11.2874595 C30.1982778,10.0231633 28.9874946,8.92512513 27.6149469,8.04277308 L27.6149469,8.04277308 Z M19.9999809,5.81817626 C18.6309982,5.81817626 17.283406,6.03207979 16.021375,6.39571581 L16.021375,6.39571581 L19.9999809,15.229932 L23.9785867,6.39571581 L23.5555331,6.27450381 C22.421052,5.97028544 21.235868,5.81817626 19.9999809,5.81817626 Z"></path>
        </g>
    </g>
</svg>