<?xml version="1.0" encoding="UTF-8"?>
<svg width="122px" height="32px" viewBox="0 0 122 32" version="1.1" xmlns="http://www.w3.org/2000/svg" xmlns:xlink="http://www.w3.org/1999/xlink">
    <!-- Generator: sketchtool 62 (101010) - https://sketch.com -->
    <title>F249DEEF-F202-4BA2-B229-E865B460FE87</title>
    <desc>Created with sketchtool.</desc>
    <g id="page" stroke="none" stroke-width="1" fill="none" fill-rule="evenodd">
        <g id="1.0-PAGE" transform="translate(-62.000000, -15.000000)" fill="#FFFFFF" fill-rule="nonzero">
            <g id="CILIA/HEADER">
                <g id="header">
                    <path d="M102.199913,16.3798971 C93.7493484,16.3798971 86.9042874,23.2331434 86.9042874,31.6922865 C86.9042874,40.1467537 93.7493484,47 102.199913,47 C110.646325,47 117.495538,40.1467537 117.495538,31.6922865 C117.495538,23.2331434 110.646325,16.3798971 102.199913,16.3798971 Z M102.165654,44.6262238 C95.0283527,44.6262238 89.2422077,38.8349163 89.2422077,31.6922865 C89.2422077,24.5460198 95.0283527,18.756271 102.165654,18.756271 C109.309184,18.756271 115.095329,24.5460198 115.095329,31.6922865 C115.095329,38.8349163 109.309184,44.6262238 102.165654,44.6262238 Z M97.139748,22.4745637 L101.542035,26.8771419 L101.542035,28.409264 L98.5967956,31.363366 L97.139748,31.363366 L92.8635964,27.0766451 L92.0849817,29.5345868 L92.6492178,32.9079571 L96.2926153,36.5587616 L101.542035,36.6476028 L106.321172,41.9084604 C106.321172,41.9084604 110.005577,40.8454825 112.18985,36.3483481 L107.006872,31.4080464 L106.882813,26.0999107 L103.510373,22.4745637 L99.3266171,21.7851347 L97.139748,22.4745637 Z M89.3327865,19.9740717 L91.0182277,17.6636793 L73.2850194,17.6636793 L68.107232,23.7220301 L63.3582017,23.7220301 C63.3582017,23.7220301 60.7259651,25.6677057 62.790332,26.6085919 C64.5650544,27.4118 64.718701,27.4741447 64.7332351,27.4741447 L63.0451986,30.1606838 L63.0451986,45.7198545 L71.6613483,45.7198545 L71.6613483,42.8083549 L87.9593103,42.8083549 C87.9593103,42.8083549 82.6247617,36.9614566 84.7140444,26.4090887 L68.8521067,26.4729921 L73.9738338,19.9740717 L89.3327865,19.9740717 Z M72.7898205,30.5986557 C72.7898205,30.5986557 74.6626483,32.0008929 73.8845528,33.4701508 C73.1012664,34.9388892 68.6392853,34.063465 66.830823,33.4701508 C66.830823,33.4701508 65.6701681,32.5645934 65.5782916,31.8486678 C65.4864151,31.1265078 65.8264101,29.9372818 65.8264101,29.9372818 C65.8264101,29.9372818 69.8549623,30.9420714 72.7898205,30.5986557 Z M126.758665,28.251376 C127.159392,27.7588525 127.629156,27.410761 128.164324,27.201906 C128.698972,26.9925316 129.279819,26.8896628 129.90323,26.8896628 C131.003153,26.8896628 131.933338,27.2096992 132.69067,27.8482132 C133.451636,28.4903642 133.901676,29.3761791 134.050651,30.5051386 L139.893894,30.5051386 C139.803056,29.2255126 139.509258,28.0638222 139.000044,27.0242236 C138.497578,25.9815076 137.80513,25.0904973 136.926853,24.344958 C136.049614,23.6035751 135.024438,23.0346793 133.849249,22.6471028 C132.675098,22.2616044 131.374811,22.0672966 129.947351,22.0672966 C128.401542,22.0672966 126.995364,22.2912182 125.736084,22.7349049 C124.4685,23.182748 123.390378,23.8607472 122.499123,24.7673437 C121.608907,25.6770575 120.916979,26.8439433 120.425932,28.2742357 C119.934886,29.7029695 119.687806,31.3987466 119.687806,33.3626062 C119.687806,35.3249071 119.934886,37.0466611 120.425932,38.5200753 C120.916979,39.9903723 121.608907,41.2273959 122.499123,42.2223142 C123.390378,43.2203498 124.456561,43.9674476 125.687291,44.4584125 C126.922174,44.9462602 128.283711,45.1930414 129.768789,45.1930414 C131.108006,45.1930414 132.349118,44.983667 133.492124,44.5685549 C134.63565,44.1518842 135.655635,43.5715585 136.547927,42.8275778 C137.440739,42.0830777 138.178346,41.1889501 138.755559,40.1493514 C139.336925,39.107155 139.700798,37.9459841 139.849772,36.6647996 L134.006529,36.6647996 C133.887141,37.8576624 133.426202,38.7637394 132.624748,39.3892651 C131.820698,40.0147906 130.854178,40.3265143 129.72311,40.3265143 C128.595676,40.3265143 127.601645,39.7467083 126.737383,38.5865764 C125.875716,37.4233274 125.444363,35.6387089 125.444363,33.2285649 C125.444363,32.0388193 125.562193,31.0329907 125.800969,30.2162746 C126.03611,29.3959216 126.359495,28.7423408 126.758665,28.251376 Z M141.528881,20.3881448 L147.30724,20.3881448 L147.30724,15.006754 L141.528881,15.006754 L141.528881,20.3881448 Z M141.528881,45.1748575 L147.30724,45.1748575 L147.30724,22.0111863 L141.528881,22.0111863 L141.528881,45.1748575 Z M148.978147,45.1821311 L154.753391,45.1821311 L154.753391,15 L148.978147,15 L148.978147,45.1821311 Z M156.467901,20.3855471 L162.244183,20.3855471 L162.244183,15.0031172 L156.467901,15.0031172 L156.467901,20.3855471 Z M156.467901,45.1800529 L162.244183,45.1800529 L162.244183,22.000276 L156.467901,22.000276 L156.467901,45.1800529 Z M178.165452,45.1612976 C177.990004,44.5960385 177.872692,43.3740815 177.814037,42.6311399 C177.129375,43.4021366 176.228777,44.0188301 175.102901,44.478103 C173.976505,44.9347783 172.673104,45.1675321 171.193217,45.1675321 C168.674138,45.1675321 166.832456,44.6121442 165.661419,43.4977318 C164.490902,42.3879954 163.904865,40.9426364 163.904865,39.1611351 C163.904865,37.5905671 164.155579,36.3405549 164.659602,35.4048642 C165.161029,34.4681344 165.860745,33.7361031 166.749403,33.201497 C167.637024,32.6679298 168.697497,32.2777556 169.928227,32.0237007 C171.153767,31.7732827 172.496618,31.5431266 173.948475,31.3347913 C175.398255,31.1285341 176.377233,30.8521391 176.881776,30.5118406 C177.382684,30.1720618 177.635993,29.6166739 177.635993,28.8430796 C177.635993,28.1333886 177.302227,27.5759226 176.636252,27.1748381 C175.970277,26.7742731 175.072794,26.5763284 173.948475,26.5763284 C172.617044,26.5763284 171.659348,26.8719465 171.080058,27.4657802 C170.502326,28.0575358 170.140529,28.8430796 169.990516,29.8203334 L164.614442,29.8203334 C164.644548,28.6950108 164.830897,27.6595684 165.171411,26.7093306 C165.510887,25.7601318 166.061108,24.9449743 166.814288,24.2597016 C167.569025,23.5817025 168.554232,23.0548894 169.768352,22.6813404 C170.981434,22.3129869 172.457687,22.1301089 174.202303,22.1301089 C175.913698,22.1301089 177.367112,22.3202604 178.562545,22.7067978 C179.75694,23.0917767 180.716712,23.6471644 181.441861,24.3729612 C182.164417,25.1003166 182.688684,26.0037958 183.012068,27.0875554 C183.340124,28.1718345 183.5,29.3917134 183.5,30.7549852 L183.5,45.1612976 L178.165452,45.1612976 Z M177.768877,33.8696247 C177.47456,34.1668014 177.041652,34.4016333 176.478453,34.5803549 C175.917331,34.7564788 175.102901,34.9523453 174.034642,35.1601611 C172.375154,35.4843537 171.235781,35.8984268 170.613408,36.4044583 C169.990516,36.9084116 169.682705,37.6342084 169.682705,38.5854853 C169.682705,40.215281 170.613408,41.0325167 172.480527,41.0325167 C173.219172,41.0325167 173.910063,40.9036708 174.548008,40.6522138 C175.185433,40.4028348 175.731502,40.0604581 176.191923,39.6297599 C176.650267,39.1990615 177.017774,38.6930301 177.302227,38.1168607 C177.583048,37.5375741 177.724236,36.9229588 177.724236,36.2714562 L177.768877,33.8696247 Z" id="logo"></path>
                </g>
            </g>
        </g>
    </g>
</svg>